<?xml version="1.0" encoding="utf-8"?>
<!-- Generator: Adobe Illustrator 27.8.0, SVG Export Plug-In . SVG Version: 6.00 Build 0)  -->
<svg version="1.1" id="Layer_1" xmlns="http://www.w3.org/2000/svg" xmlns:xlink="http://www.w3.org/1999/xlink" x="0px" y="0px"
	 viewBox="0 0 283.46 300.47" style="enable-background:new 0 0 283.46 300.47;" xml:space="preserve">
<style type="text/css">
	.st0{fill:url(#SVGID_1_);}
</style>
<linearGradient id="SVGID_1_" gradientUnits="userSpaceOnUse" x1="-9.094947e-13" y1="150.2362" x2="283.4646" y2="150.2362">
	<stop  offset="0.1" style="stop-color:#0066B3"/>
	<stop  offset="0.8" style="stop-color:#EC008C"/>
</linearGradient>
<path class="st0" d="M146.69,44.56h18.93c0,14.18,11.53,25.68,25.75,25.68c9.53,0,17.86-5.17,22.31-12.85l16.41,9.41
	c-7.72,13.34-22.17,22.32-38.72,22.32C166.69,89.12,146.69,69.17,146.69,44.56z M219.87,104.85c-30.45,0-55.87,21.36-62.1,49.86
	h-22.8c-1.38-1.13-2.78-2.23-4.23-3.27l0.05,0c9.55-11.1,15.33-25.52,15.33-41.29c0-35.04-28.47-63.44-63.6-63.44
	c-23.56,0-44.12,12.78-55.11,31.76l32.78,18.77c4.5-7.5,12.94-12.77,22.33-12.77V65.59c24.67,0,44.67,19.95,44.67,44.56
	c0,12.48-5.16,23.74-13.44,31.83c-9.64-3.94-20.17-6.14-31.23-6.14v18.88c35.12,0,63.6,28.4,63.6,63.44
	c0,35.04-28.47,63.44-63.6,63.44c-35.12,0-63.6-28.4-63.6-63.44c0-11.58,3.16-22.39,8.59-31.74l-0.07,0.02L1.75,201.27
	C0.61,206.72,0,212.37,0,218.15c0,45.46,36.95,82.32,82.52,82.32c45.58,0,82.52-36.86,82.52-82.32c0-15.01-4.07-29.05-11.12-41.15
	l21.39-12.12c1.74-23.02,21.02-41.16,44.54-41.16c24.67,0,44.67,19.95,44.67,44.56c0,24.61-20,44.56-44.67,44.56
	c-16.5,0-30.91-8.92-38.65-22.2v28c10.72,8.2,24.1,13.07,38.65,13.07c35.12,0,63.6-28.4,63.6-63.44
	C283.46,133.25,254.99,104.85,219.87,104.85z M191.36,18.88V0c-16.53,0-30.93,8.98-38.66,22.3l16.38,9.43
	C173.53,24.06,181.83,18.88,191.36,18.88z"/>
</svg>
